<?xml version="1.0" ?><!DOCTYPE svg  PUBLIC '-//W3C//DTD SVG 1.1//EN'  'http://www.w3.org/Graphics/SVG/1.1/DTD/svg11.dtd'><svg enable-background="new 0 0 512 512" height="512px" id="Calque_1" version="1.1" viewBox="0 0 512 512" width="512px" xml:space="preserve" xmlns="http://www.w3.org/2000/svg" xmlns:xlink="http://www.w3.org/1999/xlink"><g><g><g><path d="M470.21,256c0,1.9-0.021,3.79-0.08,5.67c-1.42,55.101-23.54,106.69-62.66,145.801     c-40.45,40.46-94.25,62.74-151.47,62.74c-57.221,0-111.021-22.28-151.471-62.74C65.41,368.361,43.29,316.77,41.87,261.67     c-0.061-1.88-0.08-3.77-0.08-5.67c0-57.22,22.279-111.01,62.739-151.47C144.98,64.07,198.78,41.79,256,41.79     c57.22,0,111.02,22.28,151.47,62.74C447.93,144.99,470.21,198.78,470.21,256z" fill="#F3B81A"/><g><g><path d="M407.47,104.53C367.02,64.07,313.22,41.79,256,41.79c-57.221,0-111.021,22.28-151.471,62.74       C64.07,144.99,41.79,198.78,41.79,256c0,1.9,0.02,3.79,0.08,5.67c1.42,55.101,23.54,106.69,62.659,145.801       c40.45,40.46,94.25,62.74,151.471,62.74c57.22,0,111.02-22.28,151.47-62.74c39.12-39.109,61.24-90.7,62.66-145.801       c0.061-1.88,0.08-3.77,0.08-5.67C470.21,198.78,447.93,144.99,407.47,104.53z M256,460.211       c-94.601,0-174.38-64.661-197.471-152.11C54.13,291.47,51.79,274,51.79,256C51.79,143.4,143.4,51.79,256,51.79       c112.6,0,204.21,91.61,204.21,204.21c0,18-2.341,35.471-6.74,52.101C430.38,395.55,350.6,460.211,256,460.211z" fill="#5E2B16"/></g><g><g><path d="M190.55,179.79c-17.59,0-31.9,14.32-31.9,31.91s14.311,31.9,31.9,31.9s31.9-14.311,31.9-31.9        S208.14,179.79,190.55,179.79z M190.55,233.6c-12.08,0-21.9-9.83-21.9-21.9c0-12.08,9.82-21.91,21.9-21.91        s21.9,9.83,21.9,21.91C212.45,223.77,202.63,233.6,190.55,233.6z" fill="#5E2B16"/></g><g><path d="M321.449,179.79c-17.59,0-31.899,14.32-31.899,31.91s14.311,31.9,31.899,31.9        s31.899-14.311,31.899-31.9C353.35,194.11,339.039,179.79,321.449,179.79z M321.449,233.6c-12.069,0-21.899-9.83-21.899-21.9        c0-12.08,9.83-21.91,21.899-21.91c12.08,0,21.899,9.83,21.899,21.91C343.35,223.77,333.53,233.6,321.449,233.6z" fill="#5E2B16"/></g></g></g></g></g><g><path d="M257.563,419.346c-63.483,0-115.131-51.647-115.131-115.131v-5h230.262v5    C372.694,367.699,321.046,419.346,257.563,419.346z M152.549,309.216c2.621,55.655,48.722,100.131,105.014,100.131    c56.292,0,102.394-44.476,105.014-100.131H152.549z" fill="#5E2B16"/></g></g></svg>