<?xml version="1.0" ?><!DOCTYPE svg  PUBLIC '-//W3C//DTD SVG 1.1//EN'  'http://www.w3.org/Graphics/SVG/1.1/DTD/svg11.dtd'><svg enable-background="new 0 0 512 512" height="512px" id="Calque_1" version="1.1" viewBox="0 0 512 512" width="512px" xml:space="preserve" xmlns="http://www.w3.org/2000/svg" xmlns:xlink="http://www.w3.org/1999/xlink"><g><path d="M470.209,256c0,1.9-0.02,3.79-0.079,5.67c-1.421,55.101-23.54,106.69-62.66,145.801   c-40.45,40.46-94.25,62.74-151.47,62.74c-57.221,0-111.021-22.28-151.471-62.74C65.41,368.361,43.29,316.77,41.87,261.67   c-0.061-1.88-0.08-3.77-0.08-5.67c0-57.22,22.279-111.01,62.739-151.47C144.98,64.07,198.78,41.79,256,41.79   c57.22,0,111.02,22.28,151.47,62.74C447.93,144.99,470.209,198.78,470.209,256z" fill="#F3B81A"/><g><g><path d="M407.47,104.53C367.02,64.07,313.22,41.79,256,41.79c-57.221,0-111.021,22.28-151.471,62.74     C64.07,144.99,41.79,198.78,41.79,256c0,1.9,0.02,3.79,0.08,5.67c1.42,55.101,23.54,106.69,62.659,145.801     c40.45,40.46,94.25,62.74,151.471,62.74c57.22,0,111.02-22.28,151.47-62.74c39.12-39.109,61.239-90.7,62.66-145.801     c0.061-1.88,0.079-3.77,0.079-5.67C470.209,198.78,447.93,144.99,407.47,104.53z M256,460.211     c-94.601,0-174.38-64.66-197.471-152.11C54.13,291.47,51.79,274,51.79,256C51.79,143.4,143.4,51.79,256,51.79     c112.6,0,204.209,91.61,204.209,204.21c0,18-2.34,35.471-6.739,52.101C430.38,395.551,350.6,460.211,256,460.211z" fill="#5E2B16"/></g><g><g><path d="M190.55,179.79c-17.59,0-31.9,14.32-31.9,31.91s14.311,31.9,31.9,31.9s31.9-14.311,31.9-31.9      S208.14,179.79,190.55,179.79z M190.55,233.6c-12.08,0-21.9-9.83-21.9-21.9c0-12.08,9.82-21.91,21.9-21.91s21.9,9.83,21.9,21.91      C212.45,223.77,202.63,233.6,190.55,233.6z" fill="#5E2B16"/></g><g><path d="M321.449,179.79c-17.59,0-31.899,14.32-31.899,31.91s14.311,31.9,31.899,31.9      c17.59,0,31.899-14.311,31.899-31.9C353.35,194.11,339.039,179.79,321.449,179.79z M321.449,233.6      c-12.069,0-21.899-9.83-21.899-21.9c0-12.08,9.83-21.91,21.899-21.91c12.08,0,21.899,9.83,21.899,21.91      C343.35,223.77,333.53,233.6,321.449,233.6z" fill="#5E2B16"/></g></g><g><path d="M256,384.651c-40.753,0-78.529-19.065-98.586-49.755l8.371-5.471     c18.229,27.896,52.799,45.226,90.215,45.226s71.983-17.329,90.215-45.226l8.371,5.471     C334.529,365.586,296.754,384.651,256,384.651z" fill="#5E2B16"/></g></g></g></svg>