<?xml version="1.0" ?><!DOCTYPE svg  PUBLIC '-//W3C//DTD SVG 1.1//EN'  'http://www.w3.org/Graphics/SVG/1.1/DTD/svg11.dtd'><svg enable-background="new 0 0 512 512" height="512px" id="Calque_1" version="1.1" viewBox="0 0 512 512" width="512px" xml:space="preserve" xmlns="http://www.w3.org/2000/svg" xmlns:xlink="http://www.w3.org/1999/xlink"><g><path d="M470.209,256c0,1.9-0.021,3.79-0.079,5.67c-1.421,55.103-23.54,106.69-62.66,145.803   c-40.45,40.46-94.25,62.74-151.47,62.74c-57.223,0-111.021-22.28-151.473-62.74C65.41,368.361,43.29,316.77,41.87,261.67   c-0.063-1.88-0.08-3.77-0.08-5.67c0-57.22,22.277-111.01,62.737-151.47C144.98,64.07,198.78,41.79,256,41.79   c57.22,0,111.02,22.28,151.47,62.74C447.93,144.99,470.209,198.78,470.209,256z" fill="#F3B81A"/><g><g><path d="M407.47,104.53C367.02,64.07,313.22,41.79,256,41.79c-57.223,0-111.021,22.28-151.473,62.74     C64.07,144.99,41.79,198.78,41.79,256c0,1.9,0.02,3.79,0.08,5.67c1.42,55.103,23.54,106.69,62.657,145.803     c40.45,40.46,94.25,62.74,151.473,62.74c57.22,0,111.02-22.28,151.47-62.74c39.12-39.109,61.239-90.7,62.66-145.803     c0.061-1.88,0.079-3.77,0.079-5.67C470.209,198.78,447.93,144.99,407.47,104.53z M256,460.213     c-94.603,0-174.38-64.662-197.473-152.11C54.13,291.47,51.79,274,51.79,256C51.79,143.4,143.4,51.79,256,51.79     c112.6,0,204.209,91.61,204.209,204.21c0,18-2.342,35.473-6.739,52.103C430.38,395.551,350.6,460.213,256,460.213z" fill="#5E2B16"/></g><g><g><path d="M190.551,179.79c-17.59,0-31.9,14.32-31.9,31.91s14.313,31.9,31.9,31.9s31.9-14.313,31.9-31.9      S208.141,179.79,190.551,179.79z M190.551,233.6c-12.08,0-21.9-9.83-21.9-21.9c0-12.08,9.82-21.91,21.9-21.91      s21.9,9.83,21.9,21.91C212.451,223.77,202.631,233.6,190.551,233.6z" fill="#5E2B16"/></g><g><path d="M321.448,179.79c-17.59,0-31.897,14.32-31.897,31.91s14.311,31.9,31.897,31.9s31.899-14.313,31.899-31.9      C353.351,194.11,339.039,179.79,321.448,179.79z M321.448,233.6c-12.067,0-21.897-9.83-21.897-21.9      c0-12.08,9.83-21.91,21.897-21.91c12.08,0,21.899,9.83,21.899,21.91C343.351,223.77,333.531,233.6,321.448,233.6z" fill="#5E2B16"/></g></g><g><path d="M256,329.427c40.754,0,78.526,19.064,98.586,49.757l-8.371,5.471     c-18.23-27.896-52.799-45.227-90.215-45.227s-71.984,17.327-90.215,45.227l-8.371-5.471     C177.471,348.491,215.246,329.427,256,329.427z" fill="#5E2B16"/></g></g><g><g><rect fill="#5E2B16" height="9.998" transform="matrix(0.7121 -0.702 0.702 0.7121 -78.1165 161.7383)" width="53.733" x="131.301" y="171.126"/></g><g><rect fill="#5E2B16" height="9.999" transform="matrix(-0.7121 -0.702 0.702 -0.7121 482.157 549.953)" width="53.734" x="326.963" y="171.125"/></g></g><path d="   M311.901,280.029c-0.92,1.61-1.45,3.479-1.45,5.471c0,6.08,4.92,11,11,11s11-4.92,11-11c0-1.988-0.528-3.858-1.45-5.471" fill="none" stroke="#5E2C17" stroke-linecap="round" stroke-linejoin="round" stroke-miterlimit="10" stroke-width="10"/><g><path d="M326.656,282.506c-0.024-0.049-0.059-0.092-0.084-0.143c-2.018-4.056-3.724-7.946-5.122-11.399    c-1.396,3.453-3.104,7.346-5.122,11.399c-0.021,0.041-0.05,0.072-0.068,0.112c-0.009,0.011-0.012,0.021-0.018,0.033    c-0.519,0.905-0.792,1.939-0.792,2.989c0,3.311,2.691,6,6,6c3.311,0,6-2.689,6-6c0-1.05-0.271-2.084-0.792-2.989    C326.656,282.51,326.656,282.507,326.656,282.506z" fill="none"/><path d="M335.441,277.736c-6.041-12.188-9.147-22.996-9.18-23.103c-0.61-2.15-2.575-3.636-4.813-3.636    c-2.234,0-4.198,1.484-4.811,3.636c-0.03,0.107-3.113,10.866-9.181,23.103c-1.313,2.369-2.011,5.047-2.011,7.764    c0,8.822,7.179,16,16,16c8.822,0,16-7.178,16-16C337.448,282.784,336.752,280.106,335.441,277.736z M321.448,291.5    c-3.309,0-6-2.689-6-6c0-1.05,0.273-2.084,0.792-2.988c0.006-0.013,0.01-0.023,0.018-0.034c0.021-0.04,0.05-0.071,0.068-0.112    c2.02-4.056,3.726-7.946,5.122-11.398c1.398,3.452,3.104,7.345,5.122,11.398c0.025,0.051,0.06,0.094,0.084,0.144    c0.001,0.001,0.001,0.004,0.002,0.005c0.521,0.904,0.792,1.938,0.792,2.988C327.448,288.808,324.759,291.5,321.448,291.5z" fill="#5E2C17"/></g><g><path d="M195.757,282.506c-0.026-0.049-0.061-0.092-0.084-0.143c-2.02-4.056-3.725-7.946-5.122-11.399    c-1.398,3.453-3.104,7.346-5.122,11.399c-0.021,0.041-0.05,0.072-0.07,0.112c-0.007,0.011-0.01,0.021-0.016,0.033    c-0.52,0.905-0.792,1.939-0.792,2.989c0,3.311,2.691,6,6,6s6-2.689,6-6c0-1.05-0.273-2.084-0.792-2.989    C195.758,282.51,195.758,282.507,195.757,282.506z" fill="none"/><path d="M204.541,277.736c-6.041-12.188-9.149-22.996-9.182-23.103c-0.608-2.15-2.573-3.636-4.811-3.636    s-4.2,1.484-4.813,3.636c-0.028,0.107-3.111,10.866-9.18,23.103c-1.312,2.369-2.01,5.047-2.01,7.764c0,8.822,7.178,16,16,16    s16-7.178,16-16C206.551,282.784,205.853,280.106,204.541,277.736z M190.551,291.5c-3.309,0-6-2.689-6-6    c0-1.05,0.272-2.084,0.792-2.988c0.006-0.013,0.009-0.023,0.016-0.034c0.021-0.04,0.052-0.071,0.07-0.112    c2.018-4.056,3.724-7.946,5.122-11.398c1.397,3.452,3.104,7.345,5.122,11.398c0.023,0.051,0.058,0.094,0.084,0.144    c0.001,0.001,0.001,0.004,0.002,0.005c0.519,0.904,0.792,1.938,0.792,2.988C196.551,288.808,193.86,291.5,190.551,291.5z" fill="#5E2C17"/></g></g></svg>