<?xml version="1.0" ?><svg style="enable-background:new 0 0 48 48;" version="1.1" viewBox="0 0 48 48" xml:space="preserve" xmlns="http://www.w3.org/2000/svg" xmlns:xlink="http://www.w3.org/1999/xlink"><style type="text/css">
	.st0{display:none;}
	.st1{fill:none;stroke:#303030;stroke-width:0.7;stroke-linecap:round;stroke-linejoin:round;stroke-miterlimit:10;}
	.st2{fill:#303030;}
</style><g class="st0" id="Padding__x26__Artboard"/><g id="Icons"><g><polygon class="st1" points="19.25989,11.56352 11.43553,11.56352 10.13715,24.74207 19.25989,24.74207   "/><circle class="st1" cx="16.39824" cy="14.69162" r="1.03556"/><path class="st1" d="M19.25989,24.18392c0,0,1.6363,1.01798,1.68689,1.13181c0.21221,0.47748,0.54476,0.92876,0.81098,1.37689    c0.40232,0.67722,0.8055,1.35393,1.20886,2.03053c0.20908,0.35071,0.41755,0.70178,0.62719,1.05215    c0.25677,0.42915,0.55429,0.85294,0.77785,1.30006c0.16676,0.27872,0.11646,0.58022,0.11645,0.89495    c-0.00002,0.35174-0.00006,0.70349-0.00019,1.05523c-0.00024,0.69313,0.00037,1.38629-0.002,2.07943    c-0.00064,0.36744,0.34128,0.65673,0.606,0.88073c0.2949,0.24954,0.6473,0.42812,1.03823,0.44869    c0.31204,0.01642,0.61969-0.06511,0.90056-0.19692c0.16725-0.07849,0.32576-0.17493,0.47664-0.2813    c0.22729-0.16022,0.43548-0.24184,0.51256-0.52752c0.18735-0.69436,0.37566-1.38842,0.54974-2.08626    c0.12429-0.49825,0.2736-1.00915,0.32661-1.52153c0.07589-0.73357-0.95269-4.55475-1.15505-4.833l8.70333,0.01419    c0.92,0,1.41831-0.67727,1.41831-1.60727c0-0.92-0.49831-1.76273-1.41831-1.76273H36.123c0.92,0,1.17147-0.70649,1.17147-1.62649    c0-0.93-0.48993-1.73351-1.40993-1.73351h-0.68362c0.93,0,1.18835-0.7357,1.18835-1.6557c0-0.93-0.51474-1.7143-1.44474-1.7143    h-0.1076c0.92,0,0.8421-0.94962,0.8421-1.87962c0-0.92-0.86008-1.48164-1.78009-1.48164l-4.75441,0.00126l-3.47668-0.00126    l-3.44936,0.00931c-0.1868,0.05307-0.37516,0.19402-0.53977,0.29492c-0.24501,0.15019-0.4835,0.31065-0.72131,0.4719    c-0.1914,0.12978-0.34963,0.28287-0.59042,0.27801c-0.34394-0.00694-0.68747-0.01331-1.03132-0.01331"/><line class="st1" x1="12.02338" x2="14.69852" y1="23.21387" y2="23.21387"/><line class="st1" x1="15.87054" x2="16.69493" y1="23.21387" y2="23.21387"/></g></g></svg>