<?xml version="1.0" ?><svg style="enable-background:new 0 0 48 48;" version="1.1" viewBox="0 0 48 48" xml:space="preserve" xmlns="http://www.w3.org/2000/svg" xmlns:xlink="http://www.w3.org/1999/xlink"><style type="text/css">
	.st0{display:none;}
	.st1{fill:none;stroke:#303030;stroke-width:0.7;stroke-linecap:round;stroke-linejoin:round;stroke-miterlimit:10;}
	.st2{fill:#303030;}
</style><g class="st0" id="Padding__x26__Artboard"/><g id="Icons"><g><polygon class="st1" points="19.25989,36.43648 11.43553,36.43648 10.13715,23.25793 19.25989,23.25793   "/><circle class="st1" cx="16.39824" cy="33.30838" r="1.03556"/><path class="st1" d="M19.33568,33.41838c0.34385,0,0.68738-0.00637,1.03132-0.01331    c0.24079-0.00486,0.39902,0.14823,0.59042,0.27801c0.23781,0.16125,0.4763,0.32171,0.72131,0.4719    c0.16461,0.1009,0.35297,0.24185,0.53977,0.29492l6.92604,0.00805l4.75441,0.00126c0.92,0,1.78009-0.56164,1.78009-1.48164    c0-0.93,0.0779-1.87962-0.8421-1.87962h0.1076c0.93,0,1.44474-0.7843,1.44474-1.7143c0-0.92-0.25835-1.6557-1.18835-1.6557    h0.68362c0.92,0,1.40993-0.80351,1.40993-1.73351c0-0.92-0.25147-1.62649-1.17147-1.62649h0.32154    c0.92,0,1.41831-0.84273,1.41831-1.76273c0-0.93-0.49831-1.60727-1.41831-1.60727l-8.70333,0.01419    c0.20236-0.27825,1.23094-4.09943,1.15505-4.833c-0.05301-0.51238-0.20232-1.02329-0.32661-1.52153    c-0.17408-0.69784-0.36239-1.3919-0.54974-2.08626c-0.07708-0.28568-0.28528-0.3673-0.51256-0.52752    c-0.15088-0.10636-0.30939-0.20281-0.47664-0.2813c-0.28087-0.13181-0.58852-0.21334-0.90056-0.19692    c-0.39093,0.02057-0.74333,0.19915-1.03823,0.44869c-0.26472,0.224-0.60664,0.51329-0.606,0.88073    c0.00237,0.69313,0.00176,1.38629,0.002,2.07943c0.00012,0.35174,0.00017,0.70349,0.00019,1.05523    c0.00002,0.31472,0.05031,0.61623-0.11645,0.89495c-0.22356,0.44712-0.52108,0.8709-0.77785,1.30006    c-0.20963,0.35037-0.41811,0.70144-0.62719,1.05215c-0.40336,0.6766-0.80654,1.35332-1.20886,2.03053    c-0.26623,0.44813-0.59877,0.89941-0.81098,1.37689c-0.05059,0.11383-1.68689,1.13181-1.68689,1.13181"/><line class="st1" x1="12.02338" x2="14.69852" y1="24.78613" y2="24.78613"/><line class="st1" x1="15.87054" x2="16.69493" y1="24.78613" y2="24.78613"/></g></g></svg>